Patient4_TMGait_0pt5_02_right_07_GRF.mot
version=1
nRows=32
nColumns=19
inDegrees=no
endheader
time	F1x	F1y	F1z	M1x	M1y	M1z	F2x	F2y	F2z	M2x	M2y	M2z	EC1x	EC1y	EC1z	EC2x	EC2y	EC2z
9.15	-13.4913	806.2612	55.5434	-297.1197	-42.3138	634.9303	17.1783	3.1131	1.8522	1.0155	0.85658	-3.382	-0.0592	0.0182	-0.0073	-0.0462	0.0165	0.9585
9.1631	-9.2485	791.5408	57.4015	-291.1254	-42.8411	621.8654	11.5842	2.8743	1.0107	1.0201	0.84339	-1.5558	-0.0592	0.0182	-0.0073	-0.0462	0.0165	0.9585
9.1761	-5.2076	774.4496	58.6071	-284.2561	-42.7324	606.275	6.8506	2.6785	0.37255	1.0158	0.74275	-0.02446	-0.0592	0.0182	-0.0073	-0.0462	0.0165	0.9585
9.1892	-1.5391	756.1332	59.1445	-276.9653	-42.0171	589.1112	3.2297	2.5546	-0.072718	1.0155	0.61946	1.1558	-0.0592	0.0182	-0.0073	-0.0462	0.0165	0.9585
9.2023	1.7499	737.9608	59.0871	-269.7714	-40.771	571.5327	0.71706	2.4892	-0.34896	1.0204	0.49814	1.9748	-0.0592	0.0182	-0.0073	-0.0462	0.0165	0.9585
9.2154	4.7256	721.3314	58.6154	-263.1886	-39.1522	554.7263	-0.85788	2.4668	-0.50072	1.0296	0.40464	2.4863	-0.0592	0.0182	-0.0073	-0.0462	0.0165	0.9585
9.2284	7.4893	707.4756	57.8781	-257.665	-37.283	539.718	-1.7242	2.4666	-0.56265	1.0374	0.34479	2.7603	-0.0592	0.0182	-0.0073	-0.0462	0.0165	0.9585
9.2415	10.1217	697.3221	57.0479	-253.5331	-35.3155	527.2958	-2.0955	2.4421	-0.57493	1.0294	0.31933	2.8316	-0.0592	0.0182	-0.0073	-0.0462	0.0165	0.9585
9.2546	12.7279	691.4352	56.2431	-250.9903	-33.3425	517.928	-2.1838	2.3562	-0.56109	0.98961	0.32662	2.7507	-0.0592	0.0182	-0.0073	-0.0462	0.0165	0.9585
9.2676	15.3897	689.9977	55.5777	-250.0917	-31.4569	511.7759	-2.1154	2.1384	-0.54069	0.89228	0.36052	2.4936	-0.0592	0.0182	-0.0073	-0.0462	0.0165	0.9585
9.2807	18.1761	692.7903	55.0973	-250.7435	-29.6856	508.6731	-2.0069	1.7324	-0.5176	0.71407	0.41183	2.0552	-0.0592	0.0182	-0.0073	-0.0462	0.0165	0.9585
9.2938	21.1337	699.2031	54.8425	-252.7073	-28.0512	508.1661	-1.9002	1.0681	-0.49694	0.42921	0.46985	1.385	-0.0592	0.0182	-0.0073	-0.0462	0.0165	0.9585
9.3069	24.2583	708.3099	54.8084	-255.6307	-26.5397	509.5909	-1.8175	0.10472	-0.4757	0.021483	0.51996	0.46009	-0.0592	0.0182	-0.0073	-0.0462	0.0165	0.9585
9.3199	27.5401	719.0119	55.0147	-259.1011	-25.1635	512.1585	-1.7368	-1.1633	-0.44656	-0.50976	0.53786	-0.7273	-0.0592	0.0182	-0.0073	-0.0462	0.0165	0.9585
9.333	30.9301	730.2517	55.457	-262.723	-23.9227	515.1416	-1.5927	-2.6632	-0.39695	-1.1323	0.48301	-2.1193	-0.0592	0.0182	-0.0073	-0.0462	0.0165	0.9585
9.3461	34.3898	741.1262	56.1502	-266.1644	-22.8393	517.922	-1.3075	-4.1803	-0.31169	-1.7589	0.3082	-3.5223	-0.0592	0.0182	-0.0073	-0.0462	0.0165	0.9585
9.3591	37.8393	750.9329	57.0713	-269.1719	-21.9175	520.0513	-0.75108	-5.331	-0.16685	-2.2318	-0.048781	-4.607	-0.0592	0.0182	-0.0073	-0.0462	0.0165	0.9585
9.3722	41.1756	759.1075	58.1985	-271.5435	-21.178	521.1984	0.19225	-5.4808	0.064819	-2.295	-0.64831	-4.7928	-0.0592	0.0182	-0.0073	-0.0462	0.0165	0.9585
9.3853	44.2641	765.1868	59.4681	-273.1144	-20.6197	521.1046	1.6442	-3.7325	0.41418	-1.5863	-1.5534	-3.2681	-0.0592	0.0182	-0.0073	-0.0462	0.0165	0.9585
9.3984	46.9781	768.8481	60.8177	-273.769	-20.2458	519.6249	3.6672	1.0985	0.89801	0.37057	-2.7957	1.0493	-0.0592	0.0182	-0.0073	-0.0462	0.0165	0.9585
9.4114	49.2483	769.8843	62.1599	-273.4408	-20.0203	516.664	6.2279	10.3981	1.5076	4.1343	-4.3462	9.4205	-0.0592	0.0182	-0.0073	-0.0462	0.0165	0.9585
9.4245	51.0505	768.1308	63.4158	-272.0836	-19.9076	512.1575	9.1232	25.5748	2.1887	10.2736	-6.0677	23.1424	-0.0592	0.0182	-0.0073	-0.0462	0.0165	0.9585
9.4376	52.4491	763.3566	64.467	-269.6384	-19.816	505.9571	11.8088	47.7797	2.8277	19.2501	-7.6393	43.2938	-0.0592	0.0182	-0.0073	-0.0462	0.0165	0.9585
9.4506	53.513	755.2112	65.1799	-266.0091	-19.6476	497.8494	13.2463	77.4285	3.2766	31.2272	-8.5166	70.2859	-0.0592	0.0182	-0.0073	-0.0462	0.0165	0.9585
9.4637	54.3402	743.1539	65.3657	-261.0442	-19.2572	487.4687	12.1576	113.6199	3.3162	45.8346	-8.0027	103.3588	-0.0592	0.0182	-0.0073	-0.0462	0.0165	0.9585
9.4768	55.0024	726.5199	64.8398	-254.5521	-18.5221	474.3702	8.0531	153.9383	2.732	62.0869	-5.7177	140.3463	-0.0592	0.0182	-0.0073	-0.0462	0.0165	0.9585
9.4899	55.5202	704.6736	63.4139	-246.3492	-17.3318	458.1292	1.8194	194.5605	1.2788	78.4307	-1.7982	177.6984	-0.0592	0.0182	-0.0073	-0.0462	0.0165	0.9585
9.5029	55.8452	677.1189	60.9939	-236.2916	-15.668	438.4097	-5.1558	231.6789	-1.07	93.3338	3.2066	211.7658	-0.0592	0.0182	-0.0073	-0.0462	0.0165	0.9585
9.516	55.8298	643.6786	57.542	-224.3301	-13.5686	415.1329	-11.8256	263.7365	-3.9212	106.1817	8.4938	240.9262	-0.0592	0.0182	-0.0073	-0.0462	0.0165	0.9585
9.5291	55.3296	604.5622	53.1366	-210.5364	-11.1436	388.4657	-17.6839	291.7999	-6.8149	117.4142	13.4292	266.0531	-0.0592	0.0182	-0.0073	-0.0462	0.0165	0.9585
9.5421	54.1987	560.3256	47.8637	-195.0923	-8.4847	358.8077	-22.5238	318.0836	-9.3574	127.9389	17.5699	289.1292	-0.0592	0.0182	-0.0073	-0.0462	0.0165	0.9585
9.5552	52.3063	511.7337	41.8573	-178.2431	-5.705	326.6779	-26.2669	344.7105	-11.2986	138.6204	20.6619	312.0634	-0.0592	0.0182	-0.0073	-0.0462	0.0165	0.9585
